<svg width="100" height="100" viewBox="0 0 100 100" fill="none" xmlns="http://www.w3.org/2000/svg">
  <rect width="100" height="100" rx="20" fill="#4E8E5E" />
  
  <path d="M5 100 C 5 65, 20 48, 50 48 C 80 48, 95 65, 95 100 Z" fill="#FFFFFF" />
  
  <circle cx="22" cy="62" r="14" fill="#FFFFFF" />
  <circle cx="22" cy="62" r="8" fill="#4E8E5E" />

  <circle cx="78" cy="62" r="14" fill="#FFFFFF" />
  <circle cx="78" cy="62" r="8" fill="#4E8E5E" />

  <path d="M10 100 C 10 60, 25 50, 50 50 C 75 50, 90 60, 90 100 Z" fill="#FFFFFF" />

  <path d="M44 51 C 44 45, 47 42, 50 42 C 50 46, 47 50, 44 51 Z" fill="#FFFFFF" />
  <path d="M50 51 C 51 44, 55 41, 58 42 C 57 47, 53 50, 50 51 Z" fill="#FFFFFF" />

  <circle cx="33" cy="79" r="16.5" fill="#4E8E5E" />
  <circle cx="33" cy="79" r="10.5" fill="#FFFFFF" />
  <circle cx="35" cy="75" r="4.5" fill="#4E8E5E" />

  <circle cx="67" cy="79" r="16.5" fill="#4E8E5E" />
  <circle cx="67" cy="79" r="10.5" fill="#FFFFFF" />
  <circle cx="69" cy="75" r="4.5" fill="#4E8E5E" />

  <ellipse cx="50" cy="94" r="5" rx="5" ry="3.5" fill="#4E8E5E" />
</svg>